<svg width="172" height="121" viewBox="0 0 172 121" fill="none" xmlns="http://www.w3.org/2000/svg">
<path d="M162.229 120.112H7.5466L0.530369 43.8589C0.431917 42.7823 0.571625 41.6973 0.939448 40.6809C1.30727 39.6644 1.89437 38.7414 2.65881 37.9772L38.32 2.27853C39.0683 1.52882 39.9695 0.949226 40.9621 0.579394C41.9547 0.209562 43.0154 0.0580674 44.0717 0.135356L147.125 7.71417C148.612 7.82347 150.03 8.3815 151.193 9.31418C152.357 10.2469 153.209 11.5105 153.639 12.9382L171.186 71.2152C171.536 72.3765 171.595 73.6064 171.355 74.7956L162.229 120.112Z" fill="#F0F0F0"/>
<mask id="mask0_225_1360" style="mask-type:alpha" maskUnits="userSpaceOnUse" x="0" y="0" width="172" height="121">
<path d="M162.229 120.112H7.5466L0.530369 43.8589C0.431917 42.7823 0.571625 41.6973 0.939448 40.6809C1.30727 39.6644 1.89437 38.7414 2.65881 37.9772L38.32 2.27853C39.0683 1.52882 39.9695 0.949226 40.9621 0.579394C41.9547 0.209562 43.0154 0.0580674 44.0717 0.135356L147.125 7.71417C148.612 7.82347 150.03 8.3815 151.193 9.31418C152.357 10.2469 153.209 11.5105 153.639 12.9382L171.186 71.2152C171.536 72.3765 171.595 73.6064 171.355 74.7956L162.229 120.112Z" fill="#F0F0F0"/>
</mask>
<g mask="url(#mask0_225_1360)">
<path d="M57.3463 78.3534H57.3434V78.3563H57.3463V78.3534Z" fill="#D6D9DB"/>
<path d="M173.467 78.3559L173.464 78.3534H170.749H164.522H150.27H147.248H143.24H138.987H136.013H130.788H123.63H119.354H108.317H103.722H103.298H97.6445H87.6633H83.4321H80.3799H75.4053H67.3761H57.3457V78.3559H173.467Z" fill="#D6D9DB"/>
<path d="M58.8866 29.7619V26.1608H65.7515V29.7619H75.4053V50.123L80.3799 51.5285V41.3824L97.6445 35.8663V59.9466L103.298 61.1478V47.0142H108.317V27.9257H119.354V24.6643L127.536 19.1014L136.013 24.6643V50.0344H143.24V59.25H147.248V32.9987L150.27 31.928V27.9257H155.658V30.0154L158.592 28.9743L154.585 15.6726H57.3457V29.7619H58.8866Z" fill="#ECECEC"/>
<path d="M54.1655 81.5338H174.424L173.467 78.3585H57.3457V78.3561H57.3432V78.3536V29.7622V15.6729H57.3457H154.585L153.63 12.4977H54.1655V81.5338Z" fill="white"/>
<path d="M173.467 78.3557H57.3457V78.3582H173.467V78.3557Z" fill="#D6D9DB"/>
<path d="M97.6446 59.9468V35.8665L80.38 41.3826V51.5286L83.4322 52.3926V78.3534H87.6634V57.8299L97.6446 59.9468Z" fill="#D6D9DB"/>
<path d="M119.354 27.9263H108.317V47.0148H119.354V27.9263Z" fill="#D6D9DB"/>
<path d="M143.24 59.2504V50.0348H136.014V78.3537H138.987V59.2504H143.24Z" fill="#D6D9DB"/>
<path d="M170.75 78.3537H173.464L170.75 69.3374V78.3537Z" fill="#D6D9DB"/>
<path d="M97.6445 59.9467V78.3533H103.298V61.1478L97.6445 59.9467Z" fill="#D6D9DB"/>
<path d="M87.6632 57.8302V78.3537H97.6444V59.947L87.6632 57.8302Z" fill="#D6D9DB"/>
<path d="M147.248 59.2502H143.24V78.3535H147.248V59.2502Z" fill="#D6D9DB"/>
<path d="M143.24 59.2502H138.987V78.3535H143.24V59.2502Z" fill="#D6D9DB"/>
<path d="M57.3458 29.7621H57.3434V78.3535H57.3458V29.7621Z" fill="#D6D9DB"/>
<path d="M75.4053 50.1232V29.7621H65.7515V33.026H58.8866V29.7621H57.3457V78.3535H67.3761V47.8537L75.4053 50.1232Z" fill="#D6D9DB"/>
<path d="M103.298 47.014V61.1476L103.722 61.2363V78.3531H108.317V47.014H103.298Z" fill="#D6D9DB"/>
<path d="M119.354 47.014H108.317V78.3531H119.354V47.014Z" fill="#D6D9DB"/>
<path d="M103.298 61.1477V78.3532H103.722V61.2363L103.298 61.1477Z" fill="#D6D9DB"/>
<path d="M75.4055 50.1232V78.3535H80.3801V51.5287L75.4055 50.1232Z" fill="#D6D9DB"/>
<path d="M80.38 51.5283V78.3531H83.4322V52.3923L80.38 51.5283Z" fill="#D6D9DB"/>
<path d="M67.3762 47.8538V78.3535H75.4054V50.1232L67.3762 47.8538Z" fill="#D6D9DB"/>
<path d="M167.712 59.2504L158.592 28.9746L155.658 30.0158V35.8667H150.27V31.9283L147.248 32.9991V59.2504H150.27V78.3536H164.522V59.2504H167.712Z" fill="#D6D9DB"/>
<path d="M167.712 59.2502H164.522V78.3535H170.749V69.3372L167.712 59.2502Z" fill="#D6D9DB"/>
<path d="M150.27 59.2502H147.248V78.3535H150.27V59.2502Z" fill="#D6D9DB"/>
<path d="M136.014 50.0348V24.6647L127.536 19.1018L119.354 24.6647V27.9261H123.63V78.3537H130.788V50.0348H136.014Z" fill="#D6D9DB"/>
<path d="M119.354 27.9263V47.0148V78.3539H123.63V27.9263H119.354Z" fill="#D6D9DB"/>
<path d="M136.014 50.0348H130.788V78.3537H136.014V50.0348Z" fill="#D6D9DB"/>
<path d="M65.7516 26.1613H58.8866V29.7623H65.7516V26.1613Z" fill="#D6D9DB"/>
<path d="M65.7516 29.7621H58.8866V33.026H65.7516V29.7621Z" fill="#D6D9DB"/>
<path d="M155.658 27.9263H150.27V31.9286L155.658 30.016V27.9263Z" fill="#D6D9DB"/>
<path d="M155.658 35.8667V30.0159L150.27 31.9284V35.8667H155.658Z" fill="#D6D9DB"/>
<path opacity="0.2" d="M90.4718 15.6726L57.3457 50.3617V78.3558H59.3912L119.244 15.6726H90.4718Z" fill="white"/>
<path opacity="0.2" d="M133.557 15.6726L73.7045 78.3558H84.4216L144.279 15.6726H133.557Z" fill="white"/>
<path opacity="0.2" d="M145.749 78.3562L166.819 56.2894L159.919 33.3807L116.972 78.3562H145.749Z" fill="white"/>
<path opacity="0.2" d="M170.781 78.356L172.822 76.2195L170.196 67.4961L160.062 78.356H170.781Z" fill="white"/>
<path d="M115.423 12.4977H112.246V80.8028H115.423V12.4977Z" fill="white"/>
<path d="M115.423 15.6726H112.246V16.411H115.423V15.6726Z" fill="#F0F0F0"/>
</g>
<mask id="mask1_225_1360" style="mask-type:alpha" maskUnits="userSpaceOnUse" x="0" y="0" width="172" height="121">
<path d="M162.229 120.112H7.5466L0.530369 43.8589C0.431917 42.7823 0.571625 41.6973 0.939448 40.6809C1.30727 39.6644 1.89437 38.7414 2.65881 37.9772L38.32 2.27853C39.0683 1.52882 39.9695 0.949226 40.9621 0.579394C41.9547 0.209562 43.0154 0.0580674 44.0717 0.135356L147.125 7.71417C148.612 7.82347 150.03 8.3815 151.193 9.31418C152.357 10.2469 153.209 11.5105 153.639 12.9382L171.186 71.2152C171.536 72.3765 171.595 73.6064 171.355 74.7956L162.229 120.112Z" fill="#F0F0F0"/>
</mask>
<g mask="url(#mask1_225_1360)">
<path d="M51.9088 130.225C56.5378 89.2485 48.2036 64.2126 45.2627 55.5792L49.915 54.3231L65.3273 54.456L67.278 55.1506C67.6734 62.8235 73.1664 97.2172 78.4568 130.192H51.9088V130.225Z" fill="white"/>
<path d="M65.0718 36.3982C65.0718 36.3982 51.5801 27.9311 51.0484 38.2824L50.8524 40.9608L49.9252 54.5222C49.9193 54.8957 50.0479 55.2593 50.2875 55.5457L59.6552 60.8626C59.7702 60.9357 59.9047 60.9716 60.041 60.966C60.1772 60.96 60.3082 60.9121 60.4162 60.8294L64.6431 55.9013C64.8368 55.7368 64.9864 55.5268 65.0784 55.2902C65.1708 55.0536 65.2027 54.7974 65.1715 54.5455L64.3108 46.507C64.4922 45.7271 64.5816 44.9285 64.5766 44.1277C64.7195 40.0669 65.0718 36.3982 65.0718 36.3982Z" fill="#F39494"/>
<path d="M65.733 37.0265C68.5118 37.0265 70.7641 34.7741 70.7641 31.9954C70.7641 29.2169 68.5118 26.9642 65.733 26.9642C62.9546 26.9642 60.7019 29.2169 60.7019 31.9954C60.7019 34.7741 62.9546 37.0265 65.733 37.0265Z" fill="black"/>
<path d="M66.5937 29.0877C66.5937 29.0877 71.3889 49.1956 61.0707 50.5514C52.1417 51.7444 51.1481 37.8208 51.1481 37.8208L51.5801 28.792L66.5937 29.0877Z" fill="#F39494"/>
<path d="M63.0847 20.6901C60.3033 20.6901 57.8642 21.8531 56.5017 23.6011C56.1571 24.0224 55.7072 24.3451 55.1978 24.5365C54.6883 24.7279 54.1374 24.7814 53.6007 24.691C53.2747 24.6784 52.9484 24.6874 52.6237 24.7176C43.6813 25.3423 44.9508 38.7077 53.0358 37.6177C54.7405 37.3885 56.2691 36.1822 57.1298 34.2581C57.4096 33.6228 57.9087 33.1093 58.5358 32.8116C59.1632 32.5138 59.8766 32.4517 60.5459 32.6365C61.3733 32.8608 62.2274 32.9728 63.0847 32.9688C67.3615 32.9688 70.8274 30.2206 70.8274 26.8278C70.8274 23.4349 67.3781 20.6901 63.0847 20.6901Z" fill="black"/>
<path opacity="0.2" d="M50.799 41.6323C50.799 41.6323 51.6564 41.6988 52.1282 41.3365L50.6727 43.5829L50.799 41.6323Z" fill="black"/>
<path d="M51.3476 36.2656C51.3476 36.2656 50.683 34.3814 48.6892 35.2388C46.4395 36.2357 46.9014 41.3266 50.7063 41.6224C52.7001 41.7885 52.2947 40.6254 51.9624 39.0769L51.3476 36.2656Z" fill="#F39494"/>
<path opacity="0.2" d="M48.6027 36.5614C48.7555 36.4421 48.9307 36.3544 49.1181 36.3039C49.3052 36.2531 49.5006 36.2401 49.6927 36.2657C49.8778 36.3129 50.0502 36.3993 50.1987 36.5192C50.3473 36.6389 50.4683 36.7894 50.5533 36.9602C50.7982 37.3816 50.9245 37.8618 50.9189 38.3492L50.9488 38.7779C50.9498 38.8085 50.9444 38.8387 50.9332 38.8673C50.9222 38.8956 50.9052 38.9215 50.884 38.9431C50.8624 38.965 50.8368 38.982 50.8085 38.9936C50.7803 39.0052 50.75 39.0109 50.7195 39.0105C50.6886 39.0115 50.658 39.0059 50.6294 38.9946C50.6008 38.9833 50.5749 38.9663 50.553 38.9444C50.5311 38.9225 50.5141 38.8966 50.5028 38.868C50.4915 38.8394 50.4859 38.8088 50.4869 38.7779L50.4536 38.3492C50.4387 37.9472 50.338 37.5527 50.1579 37.1928C50.0326 36.9665 49.8332 36.7904 49.593 36.6944C49.3344 36.6738 49.0772 36.7442 48.8652 36.8937C48.8114 36.9256 48.7476 36.9366 48.6864 36.9243C48.625 36.9124 48.5701 36.8775 48.5329 36.8273C48.4698 36.7941 48.503 36.6611 48.6027 36.5614Z" fill="black"/>
<path opacity="0.15" d="M64.9722 52.1727L64.6399 48.9327C63.7792 49.8233 61.3168 51.116 58.4889 50.4514C57.0796 50.1031 55.8169 49.3166 54.8834 48.205C54.8661 48.1827 54.8445 48.1641 54.8203 48.1505C54.7957 48.1365 54.7688 48.1279 54.7408 48.1249C54.7129 48.1219 54.6847 48.1242 54.6578 48.1322C54.6309 48.1405 54.6059 48.1538 54.5843 48.1718C54.5621 48.1884 54.5438 48.2097 54.5298 48.2339C54.5162 48.2582 54.5076 48.2847 54.5046 48.3123C54.5013 48.3399 54.5039 48.3682 54.5119 48.3947C54.5199 48.4213 54.5332 48.4459 54.5511 48.4675C55.7644 49.8818 57.4631 50.7913 59.313 51.0163C60.1305 51.5786 61.0527 51.971 62.025 52.1697C62.9973 52.3681 63.9996 52.3695 64.9722 52.1727Z" fill="black"/>
<path opacity="0.2" d="M61.8318 46.4504C61.8318 46.4837 61.7985 46.4837 61.8318 46.4504L60.5757 46.5501C60.5012 46.5521 60.4291 46.5259 60.3736 46.4763C60.3181 46.4272 60.2832 46.3584 60.2766 46.2843C60.2729 46.2471 60.2769 46.2095 60.2885 46.1739C60.3002 46.1384 60.3191 46.1058 60.3444 46.0779C60.3693 46.05 60.3999 46.0277 60.4338 46.0125C60.468 45.9972 60.5049 45.9889 60.5424 45.9885L61.7653 45.8888C61.8358 45.8805 61.9065 45.9001 61.9627 45.9437C62.0189 45.9872 62.0551 46.0513 62.0644 46.1214C62.0611 46.3175 61.9647 46.4504 61.8318 46.4504Z" fill="black"/>
<path opacity="0.2" d="M62.2937 45.2607C60.044 45.5931 59.0205 44.3668 58.6384 43.772C58.6051 43.7105 58.5972 43.6384 58.6158 43.571C58.6344 43.5038 58.6779 43.446 58.7381 43.4098C58.7999 43.3766 58.872 43.3676 58.9398 43.3855C59.0079 43.4035 59.0664 43.4467 59.1036 43.5062C59.4359 44.1043 60.5591 45.3937 63.2707 44.5031C63.3342 44.4891 63.4003 44.4988 63.4571 44.5307C63.5136 44.5626 63.5565 44.6144 63.5771 44.6759C63.5977 44.7374 63.5947 44.8045 63.5688 44.864C63.5429 44.9238 63.496 44.9716 63.4369 44.9982C63.0647 45.1212 62.6822 45.2092 62.2937 45.2607Z" fill="black"/>
<path d="M59.1863 39.3094C59.6436 39.3094 60.0138 38.9389 60.0138 38.482C60.0138 38.0251 59.6436 37.6545 59.1863 37.6545C58.7294 37.6545 58.3589 38.0251 58.3589 38.482C58.3589 38.9389 58.7294 39.3094 59.1863 39.3094Z" fill="black"/>
<path d="M59.5485 38.3822C59.6405 38.3822 59.7146 38.3078 59.7146 38.2161C59.7146 38.124 59.6405 38.0499 59.5485 38.0499C59.4568 38.0499 59.3823 38.124 59.3823 38.2161C59.3823 38.3078 59.4568 38.3822 59.5485 38.3822Z" fill="white"/>
<path d="M65.7331 39.3426C66.19 39.3426 66.5605 38.9721 66.5605 38.5152C66.5605 38.0583 66.19 37.6877 65.7331 37.6877C65.2758 37.6877 64.9056 38.0583 64.9056 38.5152C64.9056 38.9721 65.2758 39.3426 65.7331 39.3426Z" fill="black"/>
<path d="M66.0983 38.4152C66.1903 38.4152 66.2644 38.3408 66.2644 38.249C66.2644 38.1573 66.1903 38.0829 66.0983 38.0829C66.0066 38.0829 65.9321 38.1573 65.9321 38.249C65.9321 38.3408 66.0066 38.4152 66.0983 38.4152Z" fill="white"/>
<path opacity="0.2" d="M62.8886 43.2436L61.7986 43.3101C61.7325 43.3144 61.6673 43.2925 61.6175 43.2486C61.5677 43.2051 61.5371 43.1436 61.5328 43.0775C61.5284 43.0113 61.5504 42.9462 61.5939 42.8964C61.6374 42.8465 61.6993 42.8159 61.7654 42.8116L62.8554 42.7485C62.9208 42.7442 62.9846 42.7272 63.0438 42.6983C63.1026 42.6694 63.1551 42.6292 63.1986 42.58C63.2418 42.5308 63.275 42.4737 63.2963 42.4115C63.3176 42.3494 63.3262 42.2839 63.3222 42.2185C63.3179 42.153 63.301 42.0889 63.2721 42.03C63.2431 41.9712 63.2033 41.9184 63.1538 41.8752C63.1046 41.8317 63.0474 41.7984 62.9853 41.7772C62.9231 41.7562 62.8577 41.7473 62.7922 41.7516C62.7281 41.7486 62.6666 41.724 62.6184 41.6818C62.5702 41.6396 62.5377 41.5821 62.5264 41.519C62.4931 41.386 62.6261 41.2897 62.759 41.2564C63.0162 41.2395 63.2697 41.3229 63.4668 41.4887C63.6635 41.6549 63.7888 41.8908 63.8157 42.147C63.8343 42.4145 63.7479 42.6787 63.5748 42.8834C63.4017 43.0881 63.1554 43.2174 62.8886 43.2436Z" fill="black"/>
<path d="M69.0662 36.7208H56.412C56.0594 36.7208 55.7215 36.8607 55.4722 37.11C55.2227 37.3592 55.0828 37.6975 55.0828 38.05V39.0968C55.0828 40.0549 55.4633 40.9733 56.1408 41.6509C56.8181 42.3282 57.7369 42.709 58.6949 42.709C59.653 42.709 60.5718 42.3282 61.249 41.6509C61.9266 40.9733 62.3071 40.0549 62.3071 39.0968V38.0667C62.3054 37.7706 62.2024 37.4845 62.0147 37.2558H63.4137C63.2369 37.4881 63.1465 37.7749 63.1578 38.0667V39.0968C63.1578 40.0549 63.5383 40.9733 64.2159 41.6509C64.8931 42.3282 65.8119 42.709 66.77 42.709C67.728 42.709 68.6468 42.3282 69.3241 41.6509C70.0017 40.9733 70.3821 40.0549 70.3821 39.0968V38.0667C70.3845 37.8915 70.3519 37.7181 70.2871 37.5559C70.222 37.3934 70.1256 37.2455 70.0033 37.1206C69.881 36.9956 69.7355 36.896 69.5746 36.8272C69.4138 36.7587 69.241 36.7225 69.0662 36.7208ZM61.802 38.05V39.0968C61.8043 39.5009 61.7272 39.9013 61.5747 40.2755C61.4225 40.65 61.1975 40.9906 60.9137 41.2781C60.6296 41.5652 60.2917 41.7941 59.9192 41.951C59.547 42.1078 59.1472 42.1896 58.7431 42.1922C58.339 42.1946 57.9383 42.1171 57.5641 41.965C57.1899 41.8124 56.8493 41.5878 56.5619 41.3037C56.2744 41.0199 56.0458 40.6819 55.8889 40.3094C55.7321 39.9369 55.65 39.5374 55.6477 39.1334V38.0999C55.6493 37.8852 55.7354 37.6799 55.8869 37.5283C56.0388 37.3768 56.2442 37.2907 56.4585 37.2891H61.0277C61.2304 37.2897 61.4248 37.3698 61.5697 37.512C61.7143 37.6539 61.7977 37.847 61.802 38.05ZM69.877 39.0802C69.893 39.4926 69.8255 39.9043 69.679 40.2905C69.5328 40.6763 69.3101 41.0292 69.0247 41.3276C68.7392 41.6257 68.3966 41.8636 68.0175 42.0271C67.6383 42.1902 67.2299 42.2757 66.8172 42.2783C66.4041 42.2806 65.995 42.2002 65.6139 42.0414C65.2327 41.8825 64.8875 41.6486 64.5984 41.3538C64.3096 41.0587 64.0826 40.7088 63.9318 40.3244C63.7809 39.9402 63.7084 39.5295 63.7194 39.1168V38.0999C63.7211 37.8852 63.8071 37.6799 63.9587 37.5283C64.1105 37.3768 64.3156 37.2907 64.5302 37.2891H69.1028C69.3174 37.2907 69.5225 37.3768 69.6743 37.5283C69.8259 37.6799 69.9119 37.8852 69.9136 38.0999L69.877 39.0802Z" fill="#4D61FC" stroke="#4D61FC" stroke-miterlimit="10"/>
<path d="M34.9549 139.187L36.3971 104.737L32.6487 98.5364L23.1448 75.3182L24.0453 68.5059C23.9523 63.8071 28.0961 59.4739 32.3895 58.4803L49.7259 54.3829C52.1352 61.9562 58.2861 92.3954 57.0799 127.288C56.8007 135.622 50.344 142.241 42.5581 142.241H37.7662C36.1911 142.265 34.925 140.876 34.9549 139.187Z" fill="#007BFF"/>
<path d="M132.28 84.8185L132.882 85.3967C132.993 85.5064 133.125 85.5921 133.271 85.6483C133.417 85.7044 133.573 85.73 133.729 85.723C133.885 85.7161 134.038 85.6772 134.178 85.6084C134.318 85.5396 134.443 85.4426 134.543 85.3236C134.707 85.1398 134.827 84.9225 134.897 84.6869C134.967 84.4516 134.985 84.2037 134.948 83.9608C134.913 83.7179 134.823 83.4856 134.688 83.2809C134.553 83.0759 134.374 82.9031 134.165 82.7748L134.121 82.7515C133.593 82.4435 132.998 82.2667 132.387 82.2365L124.641 81.6516L125.262 85.4565L132.28 84.8185Z" fill="#F39494"/>
<path d="M124.697 84.4892L129.602 86.0942L127.708 93.7007L122.83 94.8638L119.011 94.2191C118.781 94.1805 118.546 94.1909 118.32 94.249L107.022 97.2398L105.174 87.9352L114.897 85.1973L121.441 82.5851C122.208 82.0388 123.118 81.73 124.059 81.6981L127.641 81.5715C128.035 81.5592 128.411 81.4114 128.708 81.1528L129.479 80.4882C129.511 80.4643 129.547 80.4473 129.586 80.439C129.625 80.4307 129.665 80.4314 129.703 80.4407C129.742 80.4497 129.778 80.4676 129.809 80.4925C129.839 80.5175 129.864 80.549 129.881 80.5846L130.037 80.8674C130.16 81.0751 130.219 81.3147 130.206 81.5556C130.194 81.7968 130.111 82.0288 129.968 82.2229L128.369 84.2167L126.92 84.1904L123.777 85.2867" fill="#F39494"/>
<path opacity="0.15" d="M126.817 85.1838C128.642 85.4882 130.513 85.3629 132.28 84.8182C132.613 85.752 133.899 85.8982 134.377 85.5094L132.683 84.1503L128.878 82.6449C128.677 82.5752 128.458 82.5762 128.257 82.6473C128.057 82.7187 127.886 82.856 127.774 83.0371L126.817 85.1838Z" fill="black"/>
<path opacity="0.15" d="M122.135 86.9485C122.108 86.9379 122.086 86.9179 122.072 86.8923C122.059 86.8667 122.055 86.8368 122.062 86.8089C122.071 86.7784 122.091 86.7524 122.118 86.7362C122.145 86.7202 122.177 86.7152 122.208 86.7225C122.285 86.7425 124.096 87.1911 125.608 84.9813C125.616 84.967 125.627 84.955 125.641 84.9454C125.654 84.9361 125.669 84.9294 125.685 84.9257C125.701 84.9224 125.718 84.9224 125.734 84.9254C125.75 84.9287 125.765 84.9354 125.779 84.9447C125.792 84.954 125.803 84.966 125.812 84.9799C125.82 84.9939 125.826 85.0092 125.828 85.0254C125.831 85.0417 125.83 85.058 125.826 85.074C125.821 85.0899 125.814 85.1045 125.804 85.1175C124.189 87.4702 122.168 86.9585 122.148 86.9518L122.135 86.9485Z" stroke="black" stroke-miterlimit="10"/>
<path d="M114.187 97.4959L89.3635 107.133C87.9166 107.579 86.3574 107.488 84.972 106.878C83.5867 106.267 82.4675 105.178 81.8201 103.81L68.0759 67.5651L80.873 62.1552L93.5771 89.8794L115.805 84.7054L114.187 97.4959Z" fill="#007BFF"/>
<path opacity="0.3" d="M90.0279 105.129C89.9116 105.166 89.7953 105.196 89.6956 105.226C86.6517 105.98 83.661 103.76 83.3287 100.65L81.9496 87.7863L82.2453 104.574C82.2453 104.907 83.7208 106.213 83.9999 106.342C84.7785 106.863 85.6641 107.204 86.5916 107.339C87.5187 107.474 88.4648 107.4 89.36 107.123L114.183 97.4863L114.419 95.6187L90.0279 105.129Z" fill="black"/>
<path d="M81.6667 73.5234L82.9162 141.061C82.8863 141.394 82.0821 142.231 81.7797 142.231H81.2347C79.1644 142.231 77.3966 140.57 77.0609 138.363C72.4352 105.701 66.6697 62.1486 66.3341 54.8113L74.7813 57.1707C78.8122 58.2939 81.5604 61.5671 81.5869 65.2756C81.6102 68.7715 81.6401 72.6096 81.6667 73.5234Z" fill="#007BFF"/>
<path d="M41.6373 105.837L44.9604 101.58L47.0173 101.198L52.9988 99.7921C53.2208 99.7462 53.4166 99.6176 53.5468 99.4325C53.6771 99.2471 53.7319 99.0195 53.7 98.7951L53.6767 98.4861C53.6804 98.2535 53.592 98.0285 53.4308 97.8607C53.2697 97.6925 53.049 97.5952 52.8161 97.5889L47.7085 97.9611L54.1553 97.5191C54.3829 97.4809 54.5863 97.3549 54.7222 97.1688C54.8581 96.9824 54.9159 96.7505 54.883 96.5222L54.8664 96.2763C54.8701 96.0436 54.7823 95.819 54.6222 95.6509C54.4617 95.4824 54.2417 95.3837 54.0091 95.3757L47.4394 95.811L55.1854 95.2827C55.4124 95.2435 55.6154 95.1175 55.7513 94.9314C55.8869 94.7453 55.9451 94.514 55.9132 94.2857V94.1628C55.9168 93.9298 55.8288 93.7045 55.6676 93.5361C55.5064 93.3676 55.2858 93.2692 55.0525 93.2623L47.1935 93.8006C47.1935 93.8006 50.1842 92.5312 50.2274 92.5212L54.4078 91.5509C54.6125 91.4847 54.7873 91.3485 54.901 91.1661C55.0146 90.9836 55.0601 90.7666 55.0292 90.554C55.0329 90.4327 55.011 90.312 54.9651 90.1997C54.9189 90.0871 54.8498 89.9857 54.7621 89.902C54.6743 89.8179 54.57 89.7534 54.456 89.7122C54.3417 89.671 54.2201 89.6544 54.0988 89.6634L46.2597 91.0989C46.1912 91.1132 46.1251 91.1381 46.0636 91.172L36.9518 95.7512L41.6373 105.837Z" fill="#F39494"/>
<path opacity="0.3" d="M54.1656 95.3524L46.5425 95.8741" stroke="black" stroke-width="1.03" stroke-linecap="round" stroke-linejoin="round"/>
<path opacity="0.3" d="M53.0653 97.5658L47.1702 97.9912" stroke="black" stroke-width="1.03" stroke-linecap="round" stroke-linejoin="round"/>
<g opacity="0.3">
<path opacity="0.3" d="M32.9112 98.3339C32.7649 98.4469 32.6752 98.3904 32.7118 98.2109L35.9817 81.4361C35.997 81.355 36.0418 81.2826 36.1076 81.2328C36.1734 81.1832 36.2552 81.1596 36.3372 81.167C36.3961 81.1709 36.4509 81.1982 36.4898 81.2421C36.529 81.2862 36.5492 81.3437 36.5466 81.4029L35.2705 109.858C35.2609 109.958 35.2277 110.054 35.1742 110.139C35.1203 110.224 35.0476 110.295 34.9615 110.347L33.9646 110.882C33.8051 110.968 33.6854 110.882 33.7021 110.706L34.9881 97.0279C35.0047 96.8452 34.9017 96.7887 34.7555 96.9017L32.9112 98.3339Z" fill="black"/>
</g>
<path d="M24.4375 65.8507L17.1268 103.484C15.4353 115.69 24.9426 118.438 29.8474 115.564C29.9873 115.482 30.1196 115.387 30.2429 115.281L43.0101 104.674L38.6403 93.8641L32.6587 98.5363L38.2714 69.7453" fill="#007BFF"/>
<path d="M146.563 51.6948C143.79 50.2532 140.653 49.6664 137.547 50.0083C134.441 50.3503 131.506 51.6057 129.113 53.6158C126.721 55.626 124.978 58.3004 124.106 61.3011C123.233 64.3018 123.271 67.4936 124.212 70.4731C125.154 73.4525 126.959 76.0857 129.397 78.0397C131.836 79.9937 134.799 81.1807 137.912 81.4502C141.025 81.72 144.149 81.0604 146.887 79.5547C149.625 78.0493 151.855 75.7654 153.295 72.9923C155.225 69.2751 155.6 64.9435 154.337 60.9502C153.075 56.9565 150.279 53.6275 146.563 51.6948ZM133.231 77.3389C130.932 76.1436 129.038 74.2936 127.79 72.0223C126.542 69.751 125.996 67.1607 126.22 64.579C126.444 61.997 127.429 59.5395 129.05 57.5175C130.671 55.4954 132.855 53.9993 135.326 53.2187C137.797 52.4378 140.444 52.4076 142.933 53.131C145.421 53.8548 147.639 55.3003 149.306 57.2845C150.973 59.2687 152.014 61.7025 152.298 64.2786C152.582 66.8546 152.095 69.4569 150.9 71.7561C149.297 74.8393 146.535 77.1597 143.222 78.2068C139.908 79.2536 136.314 78.9416 133.231 77.3389Z" fill="#21252B"/>
<path d="M123.584 95.1369L132.889 77.9534L135.447 79.2826L126.309 96.6124C126.271 96.6851 126.219 96.7496 126.156 96.8018C126.092 96.8543 126.019 96.8935 125.94 96.9171C125.862 96.941 125.779 96.949 125.698 96.9407C125.616 96.932 125.537 96.9074 125.465 96.8682L123.833 95.9644C123.691 95.8869 123.585 95.7567 123.539 95.6018C123.492 95.447 123.508 95.2798 123.584 95.1369Z" fill="#21252B"/>
<path d="M125.611 96.2267L134.723 78.9468L131.23 77.7073L122.388 94.4688C122.313 94.6114 122.297 94.7772 122.342 94.931C122.389 95.0852 122.493 95.2152 122.634 95.2929L124.77 96.4726C124.841 96.5128 124.92 96.5384 125.001 96.5477C125.082 96.557 125.164 96.55 125.242 96.5271C125.321 96.5042 125.394 96.466 125.457 96.4141C125.521 96.3626 125.573 96.2988 125.611 96.2267Z" fill="#3F4249"/>
<path opacity="0.3" d="M131.23 77.7144L130.14 79.8079C130.393 79.9574 130.645 80.1003 130.908 80.2366C131.741 80.6676 132.61 81.0235 133.507 81.2999L134.73 78.9539L131.23 77.7144Z" fill="black"/>
<path d="M145.699 51.3589C142.926 49.9207 139.788 49.3368 136.683 49.6818C133.577 50.0267 130.644 51.2845 128.254 53.2963C125.863 55.308 124.123 57.9834 123.253 60.9842C122.383 63.9849 122.422 67.1764 123.366 70.1548C124.31 73.1333 126.116 75.7648 128.555 77.7171C130.994 79.6694 133.958 80.8544 137.07 81.1226C140.183 81.3908 143.305 80.7298 146.043 79.2235C148.78 77.7171 151.009 75.4328 152.448 72.6597C154.378 68.9402 154.75 64.6063 153.485 60.6116C152.219 56.6173 149.418 53.2889 145.699 51.3589ZM132.367 77.003C130.068 75.8073 128.175 73.9571 126.928 71.6857C125.68 69.4144 125.134 66.8241 125.359 64.2424C125.583 61.6611 126.568 59.204 128.189 57.1823C129.81 55.1605 131.994 53.6648 134.465 52.8839C136.936 52.1033 139.583 52.073 142.072 52.7968C144.56 53.5202 146.778 54.9654 148.444 56.9496C150.111 58.9335 151.152 61.3673 151.436 63.943C151.72 66.5187 151.234 69.121 150.039 71.4202C149.245 72.9475 148.159 74.3033 146.841 75.4102C145.523 76.5175 144.001 77.3539 142.359 77.8723C140.718 78.391 138.991 78.5808 137.277 78.4319C135.562 78.2827 133.894 77.7972 132.367 77.003Z" fill="#3F4249"/>
<path d="M127.505 94.346L128.921 93.6814C129.226 93.5465 129.489 93.3318 129.682 93.06C129.836 92.8041 129.931 92.5173 129.96 92.2199C129.99 91.9228 129.953 91.6227 129.851 91.3419L126.196 89.4644C126.012 89.3687 125.803 89.3305 125.597 89.3548C125.391 89.379 125.197 89.4647 125.039 89.6007C124.957 89.6694 124.892 89.7565 124.849 89.8546C124.806 89.9529 124.786 90.0599 124.791 90.1672C124.796 90.2743 124.826 90.3789 124.878 90.4726C124.931 90.5664 125.004 90.6468 125.093 90.7072L127.063 92.0697C127.264 92.2106 127.434 92.3917 127.562 92.6014L127.505 94.346Z" fill="#F39494"/>
<path opacity="0.3" d="M129.539 90.4843L129.223 91.0824L125.9 89.3378L126.219 88.8394L129.539 90.4843Z" fill="black"/>
<path opacity="0.3" d="M127.376 86.6095L131.463 88.2511H132.374L128.011 85.6658L127.376 86.6095Z" fill="black"/>
<path d="M126.09 86.1214C127.359 86.5899 129.622 87.4672 131.111 88.0488C131.507 88.2325 131.818 88.5602 131.981 88.9653C132.144 89.37 132.146 89.8216 131.988 90.2287C131.933 90.4194 131.837 90.5962 131.707 90.7464C131.577 90.8966 131.416 91.0169 131.235 91.0987C131.054 91.1804 130.857 91.2219 130.658 91.2203C130.46 91.2186 130.264 91.1741 130.084 91.0894L125.259 88.6868C124.932 88.4987 124.689 88.192 124.581 87.8304C124.473 87.4689 124.507 87.0798 124.678 86.7428C124.79 86.4793 124.999 86.2686 125.261 86.1533C125.523 86.038 125.819 86.0267 126.09 86.1214Z" fill="#F39494"/>
<path d="M129.745 87.4038C130.39 87.8458 131.128 88.1312 131.902 88.2379C132.077 88.2489 132.252 88.2236 132.417 88.1634C132.582 88.1033 132.732 88.0096 132.859 87.8886C132.986 87.7673 133.086 87.6215 133.153 87.4596C133.221 87.2978 133.254 87.1237 133.251 86.9485V86.8854C133.311 85.7389 132.613 84.7321 131.623 84.5393L131.291 84.4762C130.717 84.3625 130.165 84.1618 129.652 83.8814L129.008 83.5258C128.729 83.3772 128.404 83.3443 128.102 83.4337C127.8 83.5235 127.545 83.7282 127.393 84.0043C127.187 84.3266 127.109 84.7148 127.175 85.0916C127.241 85.4688 127.445 85.8074 127.748 86.0413L129.745 87.4038Z" fill="#F39494"/>
</g>
</svg>
