<svg width="24" height="25" viewBox="0 0 24 25" fill="none" xmlns="http://www.w3.org/2000/svg">
<path d="M20.94 11.3333C20.7135 9.30537 19.8042 7.41479 18.3613 5.97195C16.9185 4.5291 15.0279 3.61976 13 3.39325V1.33325H11V3.39325C8.97212 3.61976 7.08154 4.5291 5.63869 5.97195C4.19585 7.41479 3.28651 9.30537 3.06 11.3333H1V13.3333H3.06C3.28651 15.3611 4.19585 17.2517 5.63869 18.6946C7.08154 20.1374 8.97212 21.0467 11 21.2733V23.3333H13V21.2733C15.0279 21.0467 16.9185 20.1374 18.3613 18.6946C19.8042 17.2517 20.7135 15.3611 20.94 13.3333H23V11.3333H20.94ZM12 19.3333C8.13 19.3333 5 16.2033 5 12.3333C5 8.46325 8.13 5.33325 12 5.33325C15.87 5.33325 19 8.46325 19 12.3333C19 16.2033 15.87 19.3333 12 19.3333Z" fill="white"/>
</svg>
