<svg width="16" height="17" viewBox="0 0 16 17" fill="none" xmlns="http://www.w3.org/2000/svg">
<path d="M7.33325 12.6664H8.66658V11.3331H7.33325V12.6664ZM7.99992 1.99976C4.31992 1.99976 1.33325 4.98642 1.33325 8.66642C1.33325 12.3464 4.31992 15.3331 7.99992 15.3331C11.6799 15.3331 14.6666 12.3464 14.6666 8.66642C14.6666 4.98642 11.6799 1.99976 7.99992 1.99976ZM7.99992 13.9998C5.05992 13.9998 2.66659 11.6064 2.66659 8.66642C2.66659 5.72642 5.05992 3.33309 7.99992 3.33309C10.9399 3.33309 13.3333 5.72642 13.3333 8.66642C13.3333 11.6064 10.9399 13.9998 7.99992 13.9998ZM7.99992 4.66642C6.52659 4.66642 5.33325 5.85976 5.33325 7.33309H6.66658C6.66658 6.59976 7.26658 5.99976 7.99992 5.99976C8.73325 5.99976 9.33325 6.59976 9.33325 7.33309C9.33325 8.66642 7.33325 8.49976 7.33325 10.6664H8.66658C8.66658 9.16642 10.6666 8.99976 10.6666 7.33309C10.6666 5.85976 9.47325 4.66642 7.99992 4.66642Z" fill="black"/>
</svg>
