<svg width="16" height="16" viewBox="0 0 16 16" fill="none" xmlns="http://www.w3.org/2000/svg">
<g clip-path="url(#clip0_596_233)">
<path fill-rule="evenodd" clip-rule="evenodd" d="M2.81463 2.81463C5.67832 -0.0490507 10.3218 -0.0490507 13.1854 2.81463C16.0491 5.67832 16.0491 10.3218 13.1854 13.1854C12.9251 13.4458 12.503 13.4458 12.2426 13.1854C11.9823 12.9251 11.9823 12.503 12.2426 12.2426C14.5856 9.89965 14.5856 6.10043 12.2426 3.75744C9.89965 1.41446 6.10043 1.41446 3.75744 3.75744C1.41446 6.10043 1.41446 9.89965 3.75744 12.2426C4.01779 12.503 4.01779 12.9251 3.75744 13.1854C3.49709 13.4458 3.07498 13.4458 2.81463 13.1854C-0.0490507 10.3218 -0.0490507 5.67832 2.81463 2.81463ZM4.70035 4.70025C6.52269 2.87763 9.47739 2.87763 11.2997 4.70025C13.1225 6.52261 13.1225 9.47746 11.2997 11.2998C11.0393 11.5601 10.6172 11.5601 10.3569 11.2997C10.0966 11.0393 10.0966 10.6172 10.357 10.3569C11.6589 9.05528 11.6589 6.9448 10.357 5.64316L10.3569 5.64306C9.05528 4.34114 6.9448 4.34114 5.64316 5.64306L5.64306 5.64316C4.34114 6.9448 4.34114 9.05528 5.64306 10.3569C5.90344 10.6172 5.90348 11.0393 5.64316 11.2997C5.38284 11.5601 4.96073 11.5601 4.70035 11.2998C2.87763 9.4775 2.8776 6.52272 4.70025 4.70035C4.70027 4.70033 4.70028 4.70032 4.7003 4.7003C4.70032 4.70028 4.70033 4.70027 4.70035 4.70025Z" fill="black"/>
<path fill-rule="evenodd" clip-rule="evenodd" d="M6.58579 6.58579C6.96086 6.21071 7.46957 6 8 6C8.53043 6 9.03914 6.21071 9.41421 6.58579C9.78929 6.96086 10 7.46957 10 8C10 8.53043 9.78929 9.03914 9.41421 9.41421C9.20128 9.62715 8.94527 9.78711 8.66667 9.88562V14H9.33333C9.70152 14 10 14.2985 10 14.6667C10 15.0349 9.70152 15.3333 9.33333 15.3333H6.66667C6.29848 15.3333 6 15.0349 6 14.6667C6 14.2985 6.29848 14 6.66667 14H7.33333V9.88562C7.05473 9.78711 6.79872 9.62715 6.58579 9.41421C6.21071 9.03914 6 8.53043 6 8C6 7.46957 6.21071 6.96086 6.58579 6.58579ZM8 8.66667C8.17681 8.66667 8.34638 8.59643 8.4714 8.4714C8.59643 8.34638 8.66667 8.17681 8.66667 8C8.66667 7.82319 8.59643 7.65362 8.4714 7.5286C8.34638 7.40357 8.17681 7.33333 8 7.33333C7.82319 7.33333 7.65362 7.40357 7.5286 7.5286C7.40357 7.65362 7.33333 7.82319 7.33333 8C7.33333 8.17681 7.40357 8.34638 7.5286 8.4714C7.65362 8.59643 7.82319 8.66667 8 8.66667Z" fill="black"/>
</g>
<defs>
<clipPath id="clip0_596_233">
<rect width="16" height="16" fill="white"/>
</clipPath>
</defs>
</svg>
