<svg width="32" height="33" viewBox="0 0 32 33" fill="none" xmlns="http://www.w3.org/2000/svg">
<path d="M27.9999 8.00264H17.8799L22.2666 3.61598L21.3333 2.66931L15.9999 8.00264L10.6666 2.66931L9.71992 3.61598L14.1199 8.00264H3.99992C3.29267 8.00264 2.6144 8.2836 2.1143 8.78369C1.6142 9.28379 1.33325 9.96207 1.33325 10.6693V26.6693C1.33325 28.136 2.53325 29.336 3.99992 29.336H27.9999C29.4666 29.336 30.6666 28.136 30.6666 26.6693V10.6693C30.6666 9.96207 30.3856 9.28379 29.8855 8.78369C29.3854 8.2836 28.7072 8.00264 27.9999 8.00264ZM27.9999 26.6693H3.99992V10.6693H27.9999V26.6693ZM11.9999 13.336V24.0026L21.3333 18.6693L11.9999 13.336Z" fill="#1B2E5A"/>
</svg>
