<svg width="32" height="33" viewBox="0 0 32 33" fill="none" xmlns="http://www.w3.org/2000/svg">
<g clip-path="url(#clip0_545_545)">
<path d="M25.3333 2.68286H8C6.392 2.68286 4 3.74819 4 6.68286V25.3495C4 28.2842 6.392 29.3495 8 29.3495H28V26.6829H8.016C7.4 26.6669 6.66667 26.4229 6.66667 25.3495C6.66667 25.2149 6.67867 25.0949 6.69867 24.9855C6.848 24.2189 7.476 24.0295 8.01467 24.0162H26.6667C26.6907 24.0162 26.708 24.0042 26.732 24.0029H28V5.34953C28 3.87886 26.804 2.68286 25.3333 2.68286ZM25.3333 21.3495H6.66667V6.68286C6.66667 5.60819 7.4 5.36553 8 5.34953H17.3333V14.6829L20 13.3495L22.6667 14.6829V5.34953H25.3333V21.3495Z" fill="#1B2E5A"/>
</g>
<defs>
<clipPath id="clip0_545_545">
<rect width="32" height="32" fill="white" transform="translate(0 0.00195312)"/>
</clipPath>
</defs>
</svg>
