<svg width="32" height="33" viewBox="0 0 32 33" fill="none" xmlns="http://www.w3.org/2000/svg">
<path opacity="0.3" d="M6.66675 24.4161L10.6667 22.8694V7.26941L6.66675 8.61608V24.4161ZM21.3334 24.7361L25.3334 23.3894V7.58941L21.3334 9.14941V24.7361Z" fill="#1B2E5A"/>
<path d="M27.3333 4.00269L27.12 4.04269L20 6.80269L12 4.00269L4.48 6.53602C4.2 6.62935 4 6.86935 4 7.17602V27.336C4 27.7094 4.29333 28.0027 4.66667 28.0027L4.88 27.9627L12 25.2027L20 28.0027L27.52 25.4694C27.8 25.376 28 25.136 28 24.8294V4.66935C28 4.29602 27.7067 4.00269 27.3333 4.00269ZM10.6667 22.8694L6.66667 24.416V8.61602L10.6667 7.26935V22.8694ZM18.6667 24.7094L13.3333 22.8427V7.29602L18.6667 9.16269V24.7094ZM25.3333 23.3894L21.3333 24.736V9.14935L25.3333 7.60269V23.3894Z" fill="#1B2E5A"/>
</svg>
