<svg width="33" height="33" viewBox="0 0 33 33" fill="none" xmlns="http://www.w3.org/2000/svg">
<path d="M24.7486 20.0025H8.74862L3.41528 25.3359V4.00252C3.41528 3.6489 3.55576 3.30976 3.80581 3.05971C4.05586 2.80967 4.39499 2.66919 4.74862 2.66919H24.7486C25.1022 2.66919 25.4414 2.80967 25.6914 3.05971C25.9415 3.30976 26.082 3.6489 26.082 4.00252V18.6692C26.082 19.0228 25.9415 19.3619 25.6914 19.612C25.4414 19.862 25.1022 20.0025 24.7486 20.0025ZM31.4153 12.0025V30.6692L26.082 25.3359H11.4153C11.0617 25.3359 10.7225 25.1954 10.4725 24.9453C10.2224 24.6953 10.082 24.3561 10.082 24.0025V22.6692H28.7486V10.6692H30.082C30.4356 10.6692 30.7747 10.8097 31.0248 11.0597C31.2748 11.3098 31.4153 11.6489 31.4153 12.0025ZM11.6686 5.33586C10.5086 5.33586 9.57528 5.60252 8.85528 6.12252C8.16195 6.66919 7.81528 7.42919 7.82862 8.48252L7.84195 8.52252H10.4153C10.4286 8.12252 10.5486 7.81586 10.7886 7.60252C11.0355 7.39778 11.3479 7.2889 11.6686 7.29586C12.0819 7.29586 12.4286 7.42919 12.6686 7.66919C12.9086 7.92252 13.0153 8.26919 13.0153 8.66919C13.0153 9.09586 12.922 9.45586 12.7086 9.76252C12.522 10.0692 12.242 10.3359 11.8953 10.5492C11.2153 11.0025 10.7486 11.4025 10.4953 11.7625C10.2286 12.1092 10.082 12.6692 10.082 13.3359H12.7486C12.7486 12.9225 12.802 12.5892 12.922 12.3492C13.042 12.1092 13.2686 11.8692 13.602 11.6559C14.202 11.3359 14.6953 10.9492 15.082 10.4159C15.4686 9.88252 15.6686 9.33586 15.6686 8.66919C15.6686 7.65586 15.3086 6.84252 14.5886 6.24252C13.882 5.64252 12.9086 5.33586 11.6686 5.33586ZM10.082 14.6692V17.3359H12.7486V14.6692H10.082ZM18.082 17.3359H20.7486V14.6692H18.082V17.3359ZM18.082 5.33586V13.3359H20.7486V5.33586H18.082Z" fill="#1B2E5A"/>
</svg>
